<svg xmlns="http://www.w3.org/2000/svg" width="195" height="43" viewBox="0 0 195 43">
    <defs>
        <radialGradient id="vmlaotefba" cx="50%" cy="0%" r="116.484%" fx="50%" fy="0%" gradientTransform="translate(0.500000,0.000000),scale(1.000000,0.858490),rotate(90.000000),translate(-0.500000,-0.000000)">
            <stop offset="0%" stop-color="#29AAE2"/>
            <stop offset="100%" stop-color="#0D71BA"/>
        </radialGradient>
    </defs>
    <g fill="none" fill-rule="evenodd">
        <g>
            <g>
                <path fill="url(#vmlaotefba)" d="M18.458 1.169l.205.009c.34.029.676.132.983.308l1.504.868v5.48l-2.692-1.552-13.704 7.901v15.802l13.704 7.902 13.704-7.902V14.183l-1.256-.724v-5.48l4.82 2.78.144.089c.65.439 1.045 1.174 1.045 1.965v18.542l-.006.169c-.056.782-.496 1.491-1.182 1.887l-16.081 9.271-.187.097c-.318.147-.66.221-1.001.221l-.205-.009c-.341-.03-.677-.132-.984-.309L1.19 33.411l-.143-.09C.396 32.882 0 32.147 0 31.355V12.813l.006-.169c.056-.782.497-1.49 1.183-1.886l16.08-9.272c.368-.211.778-.317 1.189-.317zm5.205 5.085l1.752 1.01v1.903l1.237.713V7.886l1.752 1.01V27.82l-9.946 5.735-9.947-5.735V16.35l9.947-5.735 5.193 2.995V8.15l.012.006V6.254zm-5.205 9.841l-5.195 2.995v5.989l5.195 2.995 5.193-2.995v-5.99l-5.193-2.994zm7.025-12.22l1.753 1.01v1.928l-1.753-1.01V3.873zM23.663.722l1.752 1.01v1.929l-1.753-1.01V.722zM26.651 0l1.752 1.01v1.928l-1.752-1.01V0z" transform="translate(-25.000000, -21.000000) translate(25.000000, 21.000000)"/>
                <path fill="#000" d="M126.393 14.06l4.483 12.063 4.484-12.063h4.068l-6.934 17.25h-3.332l-6.935-17.25h4.166zm-66.575 0c5.39 0 9.115 3.695 9.115 8.564 0 4.82-3.724 8.564-9.115 8.564h-6.69V14.061h6.69zm21.832-.122L89 31.188h-3.944l-1.568-3.841h-7.253l-1.568 3.841H70.82l7.35-17.25h3.48zm22.003.122v3.475h-5.219v13.653h-3.773V17.535h-5.219V14.06h14.211zm11.272-.122l7.35 17.25h-3.944l-1.568-3.841h-7.253l-1.568 3.841h-3.847l7.35-17.25h3.48zm35.285 0l7.35 17.25h-3.945l-1.568-3.841h-7.253l-1.568 3.841h-3.847l7.35-17.25h3.48zm14.701.122l8.037 10.546V14.06h3.724v17.128h-3.21L165.156 20.3v10.888h-3.724V14.06h3.479zm30.089 0v3.475h-5.219v13.653h-3.773V17.535h-5.22V14.06H195zM59.818 17.462h-2.916v10.325h2.916c3.087 0 5.17-2.08 5.17-5.163 0-3.034-2.083-5.162-5.17-5.162zm20.044 1.003l-2.279 5.554h4.557l-2.278-5.554zm33.274 0l-2.279 5.554h4.558l-2.279-5.554zm35.285 0l-2.279 5.554h4.558l-2.279-5.554z" transform="translate(-25.000000, -21.000000) translate(25.000000, 21.000000)"/>
            </g>
        </g>
    </g>
</svg>